<?xml version="1.0" encoding="UTF-8"?>
<!DOCTYPE svg PUBLIC "-//W3C//DTD SVG 1.1//EN" "http://www.w3.org/Graphics/SVG/1.1/DTD/svg11.dtd">
<!-- Creator: CorelDRAW X8 -->
<svg xmlns="http://www.w3.org/2000/svg" xml:space="preserve" width="149.997mm" height="20.142mm" version="1.1" style="shape-rendering:geometricPrecision; text-rendering:geometricPrecision; image-rendering:optimizeQuality; fill-rule:evenodd; clip-rule:evenodd"
viewBox="0 0 15000 2014"
 xmlns:xlink="http://www.w3.org/1999/xlink">
 <defs>
  <style type="text/css">
   <![CDATA[
    .fil0 {fill:#8EF544}
    .fil1 {fill:white;fill-rule:nonzero}
   ]]>
  </style>
 </defs>
 <g id="Слой_x0020_1">
  <metadata id="CorelCorpID_0Corel-Layer"/>
  <g id="_2188300079984">
   <path class="fil0" d="M2123 0c-297,0 -538,241 -538,538 0,78 16,152 47,220 135,294 393,605 469,694 5,6 14,10 22,10 9,0 17,-4 23,-10 76,-89 334,-400 468,-694 32,-68 48,-142 48,-220 -1,-297 -242,-538 -539,-538zm0 818c-154,0 -279,-126 -279,-280 0,-154 125,-279 279,-279 154,0 280,125 280,279 0,154 -126,280 -280,280z"/>
   <path class="fil1" d="M14396 440l0 -334 -114 0 0 -51 280 0 0 51 -114 0 0 334 -52 0zm273 0l-51 0 0 -385 25 0 166 245 165 -245 26 0 0 385 -52 0 0 -260 -133 195 -13 0 -133 -195 0 260zm-14090 1546l-579 0 0 -1513 591 0c228,0 406,68 535,205 129,136 194,321 194,554 0,234 -66,417 -199,551 -131,135 -311,203 -542,203zm7043 -1513l467 0c156,0 276,46 358,137 83,92 125,200 125,326 0,127 -44,236 -131,327 -86,90 -210,135 -371,135l-323 0 0 588 -125 0 0 -1513zm125 809l325 0c113,0 204,-33 271,-99 68,-65 102,-148 102,-249 0,-101 -32,-183 -95,-247 -64,-63 -149,-95 -255,-95l-348 0 0 690zm1942 -181l0 -210 119 0 0 1095 -119 0 0 -213c-46,75 -108,133 -183,176 -76,42 -159,63 -249,63 -154,0 -284,-55 -389,-166 -103,-111 -155,-249 -155,-413 0,-161 51,-296 153,-405 105,-109 236,-164 391,-164 92,0 175,21 250,63 75,41 136,99 182,174zm-426 799c127,0 232,-45 313,-135 82,-90 123,-201 123,-332 0,-127 -41,-235 -123,-323 -81,-89 -186,-133 -313,-133 -125,0 -228,44 -309,133 -79,87 -118,196 -118,327 0,132 39,242 118,330 81,88 184,133 309,133zm1001 86l-123 0 0 -1095 117 0 0 176c58,-137 164,-205 317,-205 42,0 87,6 135,18l-14 117c-38,-12 -77,-18 -117,-18 -98,0 -175,35 -231,105 -56,70 -84,163 -84,277l0 625zm1508 0l-159 0 -471 -571 -129 114 0 457 -123 0 0 -1546 123 0 0 940 546 -489 166 0 -497 446 544 649zm1083 -596c0,15 -2,47 -6,96l-921 0c9,124 53,224 131,298 77,74 182,112 313,112 71,0 143,-12 217,-36 73,-24 135,-56 184,-95l57 94c-56,43 -125,79 -208,108 -82,29 -166,43 -252,43 -189,0 -330,-56 -426,-169 -95,-112 -143,-248 -143,-406 0,-165 50,-301 149,-409 100,-108 231,-162 395,-162 148,0 269,48 364,143 97,94 146,222 146,383zm-510 -413c-114,0 -210,36 -285,108 -76,72 -120,169 -132,289l800 0c-2,-120 -37,-217 -108,-289 -70,-72 -162,-108 -275,-108zm1668 129l0 -666 123 0 0 1041 0 505 -123 0 0 -213c-46,76 -107,135 -182,178 -75,42 -159,63 -252,63 -154,0 -284,-55 -389,-166 -103,-111 -155,-248 -155,-409 0,-162 52,-298 155,-407 105,-111 235,-166 389,-166 93,0 177,21 252,64 75,42 136,101 182,176zm-428 794c127,0 232,-45 313,-135 82,-90 123,-200 123,-330 0,-127 -41,-235 -123,-323 -81,-89 -186,-133 -313,-133 -125,0 -228,44 -309,133 -79,87 -118,196 -118,327 0,131 39,240 118,328 81,88 184,133 309,133zm-9754 -19c-90,88 -216,131 -375,131 -160,0 -285,-44 -376,-132 -91,-88 -136,-210 -136,-365l0 -645 289 0 0 645c0,71 19,127 59,170 40,42 94,63 164,63 69,0 124,-21 163,-63 40,-43 60,-99 60,-170l0 -645 288 0 0 645c0,157 -45,279 -136,366zm3402 -479c0,34 -3,77 -10,127l-837 0c41,158 150,238 326,238 129,0 249,-38 360,-113l114 203c-142,102 -304,153 -487,153 -195,0 -345,-56 -450,-170 -104,-112 -155,-249 -155,-413 0,-171 53,-311 161,-420 108,-110 248,-165 420,-165 162,0 296,50 401,151 105,101 157,237 157,409zm-558 -321c-73,0 -134,21 -185,62 -52,42 -86,99 -104,171l567 0c-14,-72 -45,-129 -94,-171 -49,-41 -111,-62 -184,-62zm-784 -651l0 1556 -289 0 0 -1556 289 0zm-1048 412c158,0 291,56 397,169 107,112 160,251 160,418 0,166 -53,306 -160,417 -106,111 -239,166 -397,166 -140,0 -256,-55 -348,-166l0 140 -280 0 0 -1556 288 0 0 569c93,-105 206,-157 340,-157zm-266 360c-57,61 -86,136 -86,225 0,89 29,165 86,229 57,61 131,92 221,92 90,0 164,-31 221,-92 57,-63 86,-139 86,-229 0,-90 -29,-166 -86,-227 -57,-62 -131,-92 -221,-92 -90,0 -164,31 -221,94zm-1966 -104c63,93 100,206 100,327 0,324 -263,587 -588,587 -324,0 -587,-263 -587,-587 0,-121 37,-234 99,-327 55,86 114,171 175,251 -5,25 -8,50 -8,76 0,178 144,322 321,322 178,0 322,-144 322,-322 0,-26 -3,-51 -9,-76 61,-80 121,-165 175,-251zm-2308 -334l0 931 290 0c130,0 231,-44 303,-133 73,-89 109,-201 109,-336 0,-131 -36,-240 -109,-329 -72,-89 -173,-133 -303,-133l-290 0z"/>
  </g>
 </g>
</svg>
